<svg width="28" height="27" viewBox="0 0 28 27" fill="none" xmlns="http://www.w3.org/2000/svg">
<path d="M14 0C6.30551 0 0 6.13305 0 13.5527C0 20.9294 6.24805 27 14 27C21.7423 27 28 20.9384 28 13.5527C28 6.13305 21.6945 0 14 0ZM16.4609 25.1807C15.6735 25.3389 14.8368 25.418 14 25.418C13.1632 25.418 12.3265 25.3389 11.5391 25.1807V21.4788C11.5391 20.5928 11.7852 20.2764 12.1133 19.8491C12.2803 19.665 12.3812 19.4998 13.1303 18.4097L11.8672 18.2197C8.61862 17.761 7.33902 16.1314 6.83038 14.8657C6.17413 13.1731 6.51871 11.053 7.70004 9.70848C7.88055 9.50269 8.02817 9.15456 7.897 8.79078C7.6507 8.063 7.68359 6.9082 7.84766 6.46511C8.71753 6.585 9.61197 7.18588 10.3579 7.62012C10.7017 7.81355 10.882 7.76246 11.0469 7.77832C11.6463 7.65802 12.5813 7.36695 14.0164 7.36695C14.9023 7.36695 15.8376 7.49343 16.7564 7.7466C16.9207 7.74289 17.1847 7.87761 17.6423 7.62012C18.422 7.16199 19.2861 6.5817 20.1523 6.46511C20.3164 6.9082 20.3493 8.063 20.1032 8.79078C19.9718 9.15456 20.1194 9.50269 20.3002 9.70848C21.4813 11.0532 21.8259 13.1731 21.1696 14.8657C20.661 16.1314 19.3814 17.761 16.1328 18.2197L14.8697 18.4097C15.644 19.5364 15.7256 19.6716 15.8869 19.8491C16.2148 20.2764 16.4609 20.5928 16.4609 21.4788V25.1807ZM18.1016 24.7219V21.4788C18.1016 20.5769 17.9046 19.9758 17.6421 19.5327C20.1359 18.8843 21.9079 17.4602 22.6953 15.4194C23.5321 13.2681 23.1548 10.7051 21.7601 8.93312C22.0064 7.87328 22.0064 6.18043 21.4157 5.38941C21.1532 5.04149 20.7921 4.85156 20.3329 4.85156C20.3164 4.85156 20.3164 4.85156 20.3164 4.85156C19.0443 4.91789 18.043 5.53567 16.9696 6.16457C15.9852 5.9114 14.9844 5.78492 13.9836 5.78492C12.9665 5.78492 11.9492 5.92726 11.0471 6.16457C9.91702 5.50745 8.92538 4.91624 7.61801 4.85156C7.20786 4.85156 6.84683 5.04149 6.58429 5.38941C5.99384 6.18043 5.99384 7.87328 6.23993 8.93312C4.84518 10.7051 4.46793 13.2837 5.30469 15.4194C6.0921 17.4602 7.86411 18.8843 10.3579 19.5327C10.1544 19.8761 9.99329 20.3192 9.92984 20.9189C9.42612 21.0863 8.98926 21.1409 8.58295 21.0258C8.15442 20.9036 7.82053 20.6278 7.53043 20.1573C6.87888 19.1018 5.7691 18.2401 4.50552 18.3522L4.64972 19.928C5.23483 19.8763 5.81717 20.4733 6.11966 20.9654C6.61868 21.7758 7.29095 22.3073 8.11832 22.5429C8.73248 22.7174 9.29388 22.7133 9.89844 22.5889V24.7219C5.12418 23.1082 1.64062 18.7102 1.64062 13.5527C1.64062 7.00317 7.20786 1.58203 14 1.58203C20.7921 1.58203 26.3594 7.00317 26.3594 13.5527C26.3594 18.7102 22.8758 23.1082 18.1016 24.7219Z" fill="white"/>
</svg>
