<svg width="28" height="28" viewBox="0 0 28 28" fill="none" xmlns="http://www.w3.org/2000/svg">
<g clip-path="url(#clip0)">
<path d="M24.9232 16.1737L24.9081 16.1601C24.669 15.9469 23.9367 15.2583 23.6898 14.9574C23.3999 14.582 23.4667 14.3359 23.684 13.9673C23.9585 13.5015 24.5086 12.7869 25.0907 12.0303C26.9552 9.6076 28.159 7.93042 27.9112 6.7391L27.7777 6.10278L20.8919 6.10567C20.8678 6.16841 20.5085 7.69348 18.9922 10.2904C17.8927 12.1733 17.1715 12.7649 16.9175 12.8693L16.8782 12.8577C16.7955 12.7591 16.6511 12.4928 16.5917 11.8066C16.5298 11.0877 16.5847 10.2173 16.6378 9.37561C16.7 8.38862 16.7536 7.5362 16.6252 6.9263L16.4161 5.93271C16.1634 5.8937 15.2382 5.54881 12.6604 5.52259C10.4287 5.50051 9.77306 5.81196 9.45113 6.08647L8.38622 6.99441L9.73226 7.43197C10.2445 7.59853 10.4146 7.79069 10.5541 8.74321C10.6451 9.36405 10.6927 10.4074 10.5944 11.3389C10.4532 12.6744 10.1146 12.923 10.0971 12.9362C10.0388 12.917 9.54427 12.7079 8.68572 10.9541C8.09013 9.73784 7.56804 8.29904 7.18651 7.24848C6.74986 6.0454 6.82847 6.30154 6.60695 5.73312L-0.0546875 5.73291L0.376405 6.8103C2.17362 11.3062 3.82258 14.8173 6.02931 17.339C8.46739 20.1252 11.4974 21.584 15.5789 21.584H16.3992V20.7914C16.3992 20.0505 16.4627 19.5169 16.5988 19.1124C16.6819 18.8659 16.7923 18.6622 16.9083 18.4486C17.0805 18.1341 17.2488 17.9993 17.3407 17.9793C17.424 17.9609 17.5705 18.0199 17.7329 18.1369C18.199 18.4728 18.569 18.914 18.9608 19.3813C19.526 20.0556 20.1105 20.7526 21.0379 21.209C21.5446 21.4583 22.4734 21.5842 22.9846 21.5842C23.1198 21.5842 27.9394 21.584 27.9454 21.584L27.9101 20.7588C27.8576 19.525 26.8525 17.9821 24.9232 16.1737V16.1737ZM23.0164 19.9989H23.0032C22.6507 20.0044 21.978 19.8928 21.7823 19.7966C21.1658 19.4932 20.7349 18.979 20.2357 18.3838C19.7976 17.861 19.3445 17.3204 18.7136 16.8662C18.2035 16.4986 17.7401 16.391 17.3723 16.391C17.2253 16.391 17.0933 16.4082 16.9801 16.4329C16.553 16.5258 15.9423 16.8226 15.4567 17.7099C15.3198 17.9623 15.1645 18.2482 15.0387 18.6222C14.9069 19.0135 14.8248 19.4484 14.7857 19.9774C11.71 19.8086 9.30992 18.6329 7.28221 16.3157C5.39698 14.1611 3.9138 11.1475 2.34302 7.31742C2.45667 7.31742 5.30448 7.31783 5.47261 7.31783C5.52409 7.45756 5.57963 7.61071 5.63859 7.77294C6.04982 8.90626 6.61314 10.4582 7.27687 11.7816C8.22728 13.6767 9.09523 14.5219 10.0909 14.5219C10.588 14.5219 11.0339 14.3184 11.3801 13.9331C11.8738 13.3838 12.1605 12.4773 12.2566 11.1616C12.3325 10.124 12.262 9.09058 12.1787 8.52113C12.1099 8.05261 12.0118 7.56076 11.7726 7.12011C12.7922 7.07573 14.1575 7.14591 15.0224 7.26582C15.101 7.67944 15.0498 8.49244 15.0002 9.27902C14.8804 11.1791 14.7567 13.1399 15.7977 14.0573C15.9807 14.2187 16.1749 14.3052 16.1805 14.3087L16.7103 14.4658C16.9147 14.4049 18.0988 14.9853 20.341 11.2047C21.0594 9.99336 21.7283 8.59749 22.0885 7.68584C22.9237 7.68419 25.7694 7.68728 26.1037 7.6877C25.6301 8.69471 24.5077 10.131 23.7742 11.0844C23.1346 11.9153 22.5823 12.633 22.2583 13.1828C21.6563 14.2043 21.7575 15.1147 22.3845 15.9178L22.3944 15.9302C22.7443 16.3605 23.6084 17.1572 23.7876 17.3178C25.086 18.5357 25.7117 19.4106 26.0095 19.9986H23.0164V19.9989Z" fill="white"/>
</g>
<defs>
<clipPath id="clip0">
<rect width="28" height="27" fill="white"/>
</clipPath>
</defs>
</svg>
