<svg width="88" height="94" viewBox="0 0 28 34" fill="none" xmlns="http://www.w3.org/2000/svg">
<path d="M16.0025 33.9561C15.665 33.6456 15.44 33.2316 15.44 32.9031C15.44 32.7816 15.269 32.5881 14.0405 31.3506C13.271 30.5721 12.6185 29.9196 12.596 29.8926C12.5735 29.8701 12.4385 29.7351 12.299 29.5956C12.1595 29.4561 12.002 29.2941 11.948 29.2356C11.8985 29.1771 11.786 29.0646 11.7005 28.9836C11.237 28.5561 8.59998 25.8696 8.59998 25.8291C8.59998 25.7976 8.57298 25.7751 8.54598 25.7751C8.51448 25.7751 8.37948 25.6581 8.24898 25.5186C8.11398 25.3746 6.78648 24.0291 5.29698 22.5261L2.59249 19.79H1.48099C0.828489 19.79 0.36499 19.772 0.36499 19.7495C0.36499 19.727 0.78799 19.277 1.30999 18.7505C1.82749 18.2285 2.24149 17.783 2.23249 17.765C2.19199 17.702 2.39899 17.6975 4.63098 17.711C6.37698 17.72 6.84498 17.7335 6.84498 17.7785C6.84498 17.81 6.56598 18.098 6.22848 18.4175C5.88648 18.7415 5.43198 19.178 5.21598 19.3985L4.82448 19.79L4.31598 19.7945C4.03698 19.799 3.77598 19.7945 3.73998 19.79C3.69498 19.7855 3.70848 19.8215 3.78498 19.9115C4.00098 20.159 4.66248 20.798 4.69398 20.789C4.71648 20.7845 4.72548 20.798 4.71648 20.816C4.70748 20.852 5.01348 21.1805 5.43648 21.5901C5.52648 21.6756 5.69298 21.8466 5.80548 21.9636C6.05748 22.2291 9.20748 25.4106 11.975 28.1916C13.091 29.3076 14 30.2346 14 30.2481C14 30.2886 14.2115 30.5001 14.252 30.5046C14.2745 30.5046 14.3735 30.5946 14.4725 30.7071C14.5715 30.8151 14.7515 31.0041 14.873 31.1211C14.99 31.2381 15.143 31.3911 15.2105 31.4676C15.2735 31.5396 15.395 31.6701 15.4715 31.7511L15.62 31.9041L15.854 31.5936C15.9845 31.4181 16.214 31.1841 16.3625 31.0626C16.511 30.9411 16.7225 30.7656 16.8305 30.6711C16.9385 30.5766 17.051 30.5001 17.078 30.5001C17.105 30.5001 17.2085 30.4236 17.3075 30.3291C17.411 30.2391 17.5865 30.0906 17.7035 30.0051C17.888 29.8701 18.563 29.2716 18.689 29.1276C18.9185 28.8711 19.3055 28.2996 19.4225 28.0476C19.805 27.2106 19.913 26.7201 19.904 25.8201C19.8995 25.0821 19.7735 24.3351 19.535 23.6421C19.463 23.4171 19.4 23.2056 19.4 23.1651C19.4 23.0616 18.6665 21.6351 18.3965 21.2165C18.2705 21.0185 18.1085 20.744 18.032 20.6C17.9555 20.4515 17.7755 20.132 17.636 19.8845C17.492 19.6415 17.375 19.4075 17.375 19.367C17.375 19.3265 17.3345 19.2095 17.2805 19.1105C17.141 18.8315 16.925 18.125 16.925 17.9315V17.765L17.969 17.774L19.0175 17.7875L19.067 18.1295C19.0985 18.314 19.175 18.6695 19.2425 18.917C19.31 19.16 19.373 19.412 19.3865 19.475C19.4135 19.61 19.67 20.3345 19.715 20.3975C19.733 20.4245 19.832 20.636 19.931 20.87C20.03 21.104 20.255 21.5811 20.4305 21.9276C20.606 22.2741 20.75 22.5891 20.75 22.6296C20.75 22.6701 20.7905 22.8186 20.8445 22.9671C21.2675 24.1821 21.263 25.9506 20.84 27.1611C20.7905 27.3006 20.75 27.4446 20.75 27.4851C20.75 27.5841 20.4395 28.2141 20.165 28.6821C19.9625 29.0241 19.508 29.6001 19.247 29.8476C19.0175 30.0636 18.599 30.4056 18.4325 30.5091C18.3335 30.5721 18.104 30.7476 17.924 30.9006C17.744 31.0491 17.582 31.1751 17.5595 31.1751C17.5415 31.1751 17.4245 31.2696 17.303 31.3911C17.1815 31.5081 17.006 31.6656 16.916 31.7421C16.8305 31.8186 16.6595 32.0436 16.5425 32.2371C16.358 32.5386 16.322 32.6331 16.304 32.8851C16.286 33.1731 16.322 33.3306 16.5245 33.8211C16.601 34.0056 16.5425 34.1181 16.349 34.1361C16.241 34.1496 16.169 34.1091 16.0025 33.9561Z" fill="white"/>
<path d="M21.47 19.079C21.47 19.034 22.0055 18.377 22.0595 18.359C22.082 18.35 22.1 18.323 22.1 18.296C22.1 18.242 22.343 17.9315 22.6085 17.6525L22.775 17.4725L12.0425 17.459L1.31003 17.45V17V16.55L12.0425 16.541L22.775 16.5275L22.658 16.4015C22.415 16.136 22.1 15.74 22.1 15.695C22.1 15.6725 22.082 15.65 22.064 15.65C22.0415 15.65 21.9245 15.524 21.803 15.371C21.488 14.966 21.4565 14.9255 21.4835 14.903C21.5105 14.8715 21.9515 14.993 22.451 15.1685C22.6895 15.254 23.1125 15.398 23.3825 15.4925C23.657 15.587 24.305 15.812 24.8225 15.9965C25.3445 16.1765 25.79 16.325 25.8125 16.325C25.8395 16.325 26.222 16.46 26.6675 16.622C27.113 16.784 27.5135 16.928 27.5585 16.9415C27.698 16.9865 27.6395 17.036 27.311 17.1485C27.131 17.2115 26.7305 17.3555 26.42 17.468C26.1095 17.5805 25.8305 17.675 25.7945 17.675C25.7585 17.675 25.3715 17.8055 24.9395 17.9675C24.503 18.125 24.035 18.287 23.9 18.323C23.765 18.359 23.279 18.5255 22.82 18.6875C22.1225 18.9395 21.578 19.115 21.4925 19.115C21.479 19.115 21.47 19.097 21.47 19.079Z" fill="white"/>
<path d="M1.34168 15.2856C0.801682 14.7366 0.36968 14.2686 0.37418 14.2461C0.38318 14.2191 0.833182 14.2056 1.49018 14.2101L2.59269 14.2146L4.05519 12.7205C4.8607 11.9015 5.5807 11.1725 5.6527 11.1005C5.8192 10.9475 7.19621 9.56154 7.56521 9.18354C7.71371 9.02604 7.85771 8.90004 7.88021 8.90004C7.90721 8.90004 7.92521 8.87754 7.92521 8.85054C7.92521 8.82354 8.57321 8.14854 9.36522 7.35654C14.9812 1.70452 15.4402 1.23202 15.4402 1.09252C15.4447 0.777521 15.6562 0.37252 15.9937 0.0440191C16.1602 -0.117981 16.2187 -0.149481 16.3402 -0.135981C16.5787 -0.113481 16.6012 -0.0189811 16.4482 0.35902C16.3402 0.629021 16.3177 0.750521 16.3222 1.04752C16.3222 1.39852 16.3312 1.41652 16.5382 1.76302C16.6597 1.95652 16.8307 2.18152 16.9207 2.25802C17.0107 2.33452 17.1637 2.47403 17.2627 2.57303C17.3617 2.66753 17.5237 2.79803 17.6227 2.86103C17.7172 2.92403 17.8612 3.03203 17.9377 3.10403C18.0097 3.17603 18.1942 3.31553 18.3428 3.41453C19.2968 4.05803 20.0078 4.90403 20.5703 6.07403C20.6693 6.27653 20.7503 6.47903 20.7503 6.51953C20.7503 6.56003 20.7818 6.66804 20.8223 6.76254C20.9438 7.05954 21.1058 7.87404 21.1508 8.45454C21.2543 9.77304 20.9213 11.231 20.2373 12.455C20.1293 12.6485 19.8323 13.3281 19.5938 13.9176C19.5353 14.0661 19.4678 14.2281 19.4453 14.2776C19.4228 14.3271 19.3958 14.4306 19.3868 14.5026C19.3733 14.5791 19.3103 14.8401 19.2428 15.0876C19.1798 15.3351 19.0988 15.6906 19.0718 15.8751L19.0178 16.2126H17.9602H16.9027L16.9162 16.0416C16.9297 15.8796 17.0962 15.3486 17.3257 14.7366C17.3797 14.5926 17.5282 14.2911 17.6587 14.0706C17.7892 13.8501 17.9557 13.5486 18.0322 13.4001C18.1087 13.2561 18.2483 13.0221 18.3383 12.8826C18.6398 12.4325 19.4003 10.952 19.4003 10.817C19.4003 10.7855 19.4633 10.583 19.5353 10.358C19.7828 9.63804 19.8998 8.91804 19.9043 8.15754C19.9043 7.71654 19.8818 7.36104 19.8368 7.13604C19.7648 6.79404 19.4498 5.93003 19.3103 5.70503C19.0133 5.21903 18.1942 4.32353 17.8567 4.10753C17.6947 4.00853 17.5822 3.91403 17.3122 3.67103C17.2087 3.57653 17.1052 3.50003 17.0782 3.50003C17.0467 3.50003 16.9252 3.41453 16.8082 3.30653C16.6867 3.20303 16.4662 3.01403 16.3222 2.89253C16.1737 2.77103 15.9667 2.55053 15.8542 2.39752C15.7462 2.24902 15.6337 2.13202 15.6112 2.14102C15.5887 2.14552 15.3637 2.36602 15.1117 2.62703C14.8597 2.88353 13.5997 4.16153 12.3127 5.45753C11.0257 6.75804 9.02321 8.78304 7.85771 9.96204C6.6967 11.141 5.6842 12.158 5.6122 12.2255C5.5357 12.2885 5.4142 12.41 5.3422 12.4955C5.2657 12.581 5.0047 12.8511 4.7662 13.0941C4.5232 13.3371 4.3252 13.5576 4.3252 13.5801C4.3252 13.6071 4.2982 13.6251 4.2622 13.6251C4.1992 13.6251 3.74019 14.1066 3.74019 14.1696C3.74019 14.1876 3.76719 14.2011 3.79869 14.1966C3.82569 14.1966 4.06869 14.2011 4.3342 14.2011L4.8157 14.2101L5.2117 14.6061C5.4322 14.8221 5.8867 15.2586 6.2287 15.5826C6.5662 15.9021 6.84521 16.1901 6.84521 16.2216C6.84521 16.2666 6.3907 16.2801 4.5862 16.2801H2.32269L1.34168 15.2856Z" fill="white"/>
<path d="M15.9846 33.9379C15.7461 33.7129 15.5121 33.3664 15.5391 33.2809C15.5481 33.2539 15.6201 33.3394 15.6966 33.4789C15.8361 33.7264 16.2096 34.0999 16.3176 34.0999C16.3491 34.0999 16.3986 34.0684 16.4346 34.0279C16.4796 33.9694 16.4796 33.9289 16.4346 33.8164C16.3221 33.5239 16.2501 33.1864 16.2501 32.9254C16.2501 32.2819 16.7136 31.7239 18.1401 30.6484C18.5721 30.3199 19.0941 29.8879 19.2966 29.6809C19.9626 29.0014 20.4441 28.1869 20.7996 27.1249C20.8941 26.8414 20.9706 26.6389 20.9751 26.6839C20.9751 26.7244 20.9256 26.9044 20.8626 27.0889C20.7996 27.2689 20.7501 27.4489 20.7501 27.4894C20.7501 27.5839 20.4396 28.2184 20.1606 28.6909C19.7781 29.3344 19.0086 30.1489 18.4326 30.5089C18.3336 30.5719 18.1041 30.7474 17.9241 30.9004C17.7441 31.0489 17.5821 31.1749 17.5596 31.1749C17.5416 31.1749 17.4246 31.2694 17.3031 31.3909C17.1816 31.5079 17.0061 31.6654 16.9161 31.7419C16.8306 31.8184 16.6596 32.0434 16.5426 32.2369C16.3581 32.5384 16.3221 32.6329 16.3041 32.8849C16.2861 33.1729 16.3221 33.3304 16.5246 33.8209C16.6011 34.0054 16.5426 34.1179 16.3491 34.1359C16.2366 34.1494 16.1691 34.1089 15.9846 33.9379Z" fill="white"/>
<path d="M15.467 33.1281C15.4265 33.0201 15.4355 32.8176 15.4805 32.8671C15.5345 32.9256 15.5795 33.2001 15.5345 33.2001C15.512 33.2001 15.4805 33.1686 15.467 33.1281Z" fill="white"/>
<path d="M14.027 31.3415C13.2665 30.5675 12.6275 29.924 12.6095 29.906C12.596 29.888 12.461 29.753 12.3125 29.609C12.164 29.465 12.002 29.294 11.948 29.2355C11.8985 29.177 11.786 29.0645 11.7005 28.9835C11.255 28.574 8.59997 25.8695 8.59997 25.8245C8.59997 25.7975 8.57297 25.775 8.54597 25.775C8.51447 25.775 8.37947 25.658 8.24897 25.5185C8.11397 25.3745 6.78647 24.029 5.29698 22.526L2.59248 19.79H1.48099C0.841989 19.79 0.36499 19.772 0.36499 19.7495C0.36499 19.727 0.787989 19.277 1.30999 18.755C1.82749 18.2285 2.24599 17.783 2.23249 17.765C2.20099 17.711 2.43949 17.6795 2.54298 17.72C2.63298 17.756 2.62848 17.7605 2.52499 17.7605C2.43949 17.765 2.16949 18.008 1.42249 18.755L0.43249 19.745H1.53949H2.65098L4.00998 21.131C4.75698 21.8915 6.45798 23.606 7.78547 24.9425C10.508 27.683 14.999 32.2235 15.305 32.543C15.413 32.6555 15.485 32.75 15.4625 32.75C15.4355 32.75 14.792 32.1155 14.027 31.3415Z" fill="white"/>
<path d="M13.928 30.2615C12.3575 28.682 11.1695 27.485 5.53547 21.8015C4.45997 20.717 3.57347 19.808 3.56897 19.7855C3.55997 19.763 3.80297 19.745 4.15397 19.745C4.67147 19.745 4.76597 19.736 4.82447 19.6685C4.86497 19.6235 5.08547 19.4075 5.32397 19.1825C5.55797 18.962 5.97647 18.5615 6.25547 18.296L6.76398 17.81H5.48147C4.67147 17.81 4.18547 17.792 4.16747 17.765C4.14947 17.7335 4.60397 17.72 5.49047 17.72C6.57497 17.72 6.84498 17.7335 6.84498 17.7785C6.84498 17.81 6.56597 18.098 6.22847 18.4175C5.88647 18.737 5.43197 19.178 5.21147 19.394L4.81997 19.79L4.31147 19.7945C4.03697 19.799 3.77597 19.7945 3.73997 19.79C3.69497 19.7855 3.70847 19.8215 3.78497 19.9115C4.00097 20.159 4.66247 20.798 4.69397 20.789C4.71647 20.7845 4.72547 20.798 4.71647 20.816C4.71197 20.8385 4.82897 20.978 4.97747 21.131C5.12597 21.2795 5.29247 21.4505 5.34647 21.509C5.40047 21.5675 5.57147 21.7385 5.72897 21.896C5.88647 22.0535 6.89898 23.075 7.98348 24.1685C9.06798 25.262 10.8635 27.071 11.975 28.1915C13.091 29.3075 14 30.2345 14 30.248C14 30.2885 14.2115 30.5 14.252 30.5C14.2745 30.5045 14.3735 30.5945 14.4725 30.707C14.5715 30.8195 14.7515 31.0085 14.873 31.121C14.99 31.238 15.143 31.391 15.2105 31.4675C15.2735 31.5395 15.395 31.67 15.4715 31.751L15.62 31.904L15.854 31.5935C15.9845 31.418 16.214 31.184 16.3625 31.0625C16.511 30.941 16.7225 30.7655 16.8305 30.671C16.9385 30.5765 17.051 30.5 17.078 30.5C17.105 30.5 17.2085 30.4235 17.3075 30.329C17.411 30.239 17.5865 30.0905 17.7035 30.005C17.888 29.87 18.563 29.2715 18.689 29.1275C19.229 28.52 19.6745 27.6425 19.832 26.8775C19.8635 26.729 19.886 26.657 19.8905 26.7155C19.895 26.8505 19.7735 27.386 19.715 27.494C19.688 27.539 19.67 27.6065 19.67 27.6425C19.67 27.827 19.229 28.5785 18.8645 29.015C18.5585 29.384 17.933 29.9375 17.1725 30.509C16.52 30.9995 15.755 31.7105 15.755 31.8275C15.755 31.859 15.728 31.904 15.6965 31.931C15.6515 31.9715 15.2555 31.598 13.928 30.2615Z" fill="white"/>
<path d="M19.9085 26.3824C19.9085 26.2609 19.9175 26.2114 19.9265 26.2834C19.9355 26.3509 19.9355 26.4499 19.9265 26.5084C19.9175 26.5624 19.9085 26.5084 19.9085 26.3824Z" fill="white"/>
<path d="M20.984 26.5175C20.9795 26.468 21.0065 26.297 21.0425 26.135C21.083 25.9235 21.101 25.8875 21.101 26C21.101 26.171 20.9885 26.666 20.984 26.5175Z" fill="white"/>
<path d="M19.9174 25.766C19.8994 25.5591 19.8949 25.3341 19.9039 25.2576C19.9129 25.1856 19.9354 25.3431 19.9579 25.6086C19.9759 25.8785 19.9849 26.108 19.9714 26.117C19.9579 26.1305 19.9354 25.973 19.9174 25.766Z" fill="white"/>
<path d="M21.0965 25.7165C21.083 25.6805 21.0875 25.5455 21.11 25.4105L21.146 25.1675L21.1505 25.4735C21.1551 25.7705 21.1415 25.8335 21.0965 25.7165Z" fill="white"/>
<path d="M21.1009 24.7984C21.0919 24.6274 21.0964 24.4519 21.1144 24.4024C21.1369 24.3439 21.1504 24.3889 21.1504 24.5374C21.1549 24.6634 21.1684 24.8389 21.1819 24.9334C21.2 25.0369 21.1955 25.0999 21.1639 25.0999C21.1369 25.0999 21.1099 24.9649 21.1009 24.7984Z" fill="white"/>
<path d="M19.8051 24.7085C19.7736 24.5195 19.6926 24.1595 19.6206 23.912C19.5441 23.66 19.4586 23.3585 19.4226 23.2325C19.3416 22.9445 18.6981 21.689 18.3651 21.1625C18.2256 20.942 18.0636 20.6675 18.0096 20.555C17.9556 20.4425 17.8026 20.1725 17.6676 19.9475C17.5371 19.727 17.4111 19.484 17.3931 19.4075C17.3796 19.3355 17.3256 19.196 17.2761 19.097C17.1771 18.908 16.9881 18.323 16.9431 18.0935C16.9251 17.999 16.9341 17.945 16.9656 17.945C16.9926 17.945 17.0151 17.99 17.0196 18.0485C17.0241 18.2375 17.0466 18.3275 17.1636 18.665C17.2986 19.0655 17.7756 20.051 18.0366 20.465C18.8691 21.806 19.5576 23.201 19.6476 23.732C19.6656 23.8265 19.6926 23.948 19.7106 23.9975C19.7961 24.209 19.9356 25.055 19.8861 25.055C19.8726 25.055 19.8366 24.8975 19.8051 24.7085Z" fill="white"/>
<path d="M21.0694 24.245C21.0649 24.209 21.0514 24.101 21.0424 24.002C21.0064 23.651 20.7814 22.8995 20.5475 22.3325C20.507 22.2335 20.345 21.9005 20.1875 21.59C20.0345 21.2795 19.8635 20.9285 19.814 20.8025C19.3595 19.682 19.1345 18.98 19.103 18.62C19.0895 18.422 19.1165 18.494 19.247 18.98C19.4 19.556 19.661 20.3255 19.76 20.4965C19.7825 20.5415 19.8815 20.762 19.9805 20.9825C20.075 21.2075 20.2685 21.6035 20.4035 21.8645C20.7544 22.5485 21.1549 23.9075 21.0964 24.2135C21.0874 24.2675 21.0739 24.281 21.0694 24.245Z" fill="white"/>
<path d="M21.47 19.079C21.47 19.034 22.0055 18.377 22.0595 18.359C22.082 18.35 22.1 18.323 22.1 18.296C22.1 18.242 22.343 17.9315 22.6085 17.6525C22.919 17.3195 22.7795 17.5445 22.3385 18.0845C21.713 18.8495 21.6005 18.9935 21.6185 19.007C21.632 19.0205 22.3475 18.7955 22.685 18.674C22.721 18.6605 22.784 18.647 22.82 18.638C22.856 18.629 22.9235 18.6065 22.9775 18.584C23.027 18.557 23.36 18.44 23.72 18.314C24.08 18.1925 24.566 18.026 24.8 17.945C25.034 17.864 25.7405 17.6255 26.366 17.414C26.987 17.2025 27.5 17.0135 27.5 16.9955C27.5 16.9775 27.0185 16.802 26.4335 16.604C24.683 16.0145 23.4005 15.5735 23.081 15.452C22.91 15.389 22.775 15.3485 22.775 15.3665C22.775 15.38 22.748 15.371 22.721 15.3485C22.6895 15.326 22.5365 15.2675 22.3835 15.2225C22.226 15.1775 22.1 15.1235 22.1 15.101C22.1 15.038 22.1765 15.0605 22.901 15.3305C23.2925 15.4745 23.729 15.6275 23.8775 15.668C24.026 15.713 24.5075 15.875 24.953 16.037C25.394 16.1945 25.7765 16.325 25.808 16.325C25.835 16.325 26.222 16.46 26.6675 16.622C27.113 16.784 27.5135 16.928 27.5585 16.9415C27.599 16.955 27.635 16.982 27.635 17C27.635 17.036 26.987 17.279 26.2175 17.5265C25.9475 17.6165 25.367 17.819 24.935 17.972C24.503 18.1295 24.035 18.287 23.9 18.323C23.765 18.359 23.3735 18.4895 23.036 18.6155C22.442 18.8315 21.578 19.115 21.506 19.115C21.488 19.115 21.47 19.097 21.47 19.079Z" fill="white"/>
<path d="M19.022 18.116L18.986 17.855H17.9556C17.2851 17.855 16.9251 17.837 16.9251 17.81C16.9251 17.7785 17.2851 17.7695 17.9691 17.774L19.013 17.7875L19.049 17.99C19.0715 18.1025 19.0805 18.2329 19.0715 18.2824C19.0625 18.3319 19.04 18.2554 19.022 18.116Z" fill="white"/>
<path d="M12.056 17.4635C4.94153 17.4545 1.31003 17.4365 1.31003 17.405C1.31003 17.3735 4.94603 17.36 12.0875 17.36C21.6365 17.36 22.865 17.369 22.865 17.4275C22.865 17.4635 22.8515 17.4905 22.8335 17.486C22.811 17.477 17.9645 17.468 12.056 17.4635Z" fill="white"/>
<path d="M1.31003 16.595C1.31003 16.5635 4.94153 16.5455 12.0425 16.541L22.775 16.5275L22.6535 16.3925C22.5815 16.3205 22.4285 16.1405 22.3115 15.9875C22.1945 15.839 22.037 15.6455 21.965 15.56C21.488 14.984 21.4205 14.885 21.4925 14.885C21.542 14.885 22.028 15.02 22.046 15.0425C22.1135 15.1055 22.001 15.1055 21.8345 15.038C21.731 14.9975 21.6365 14.975 21.623 14.9885C21.6095 14.9975 21.884 15.3575 22.235 15.7805C22.5815 16.2035 22.865 16.5725 22.865 16.595C22.865 16.6265 18.9905 16.64 12.0875 16.64C4.94603 16.64 1.31003 16.6265 1.31003 16.595Z" fill="white"/>
<path d="M1.34153 15.2855C0.801528 14.7365 0.369528 14.2685 0.374028 14.246C0.383028 14.2235 0.851028 14.2055 1.49003 14.21L2.59253 14.2145L4.05503 12.7205C4.86053 11.9015 5.58053 11.1725 5.65253 11.1005C5.72903 11.033 6.19253 10.565 6.68753 10.0655C7.18253 9.56601 7.65053 9.09801 7.72253 9.02601C7.79903 8.95401 7.87103 8.88201 7.88903 8.86401C7.98803 8.75601 11.156 5.54751 13.118 3.56751C14.3915 2.28501 15.4445 1.24101 15.458 1.25451C15.4805 1.27701 14.387 2.39751 10.877 5.93001C9.54053 7.28001 7.13753 9.70551 5.54003 11.321L2.63753 14.255H1.53503H0.432528L1.41353 15.236C1.94903 15.7715 2.39003 16.2305 2.39003 16.2485C2.39003 16.2665 2.37653 16.28 2.35853 16.28C2.33603 16.28 1.88153 15.83 1.34153 15.2855Z" fill="white"/>
<path d="M2.99298 16.2485C3.01098 16.226 3.13248 16.2125 3.25848 16.2125C3.38898 16.208 4.23048 16.2035 5.13048 16.199L6.76848 16.19L6.18798 15.641C5.86848 15.335 5.41398 14.8985 5.17548 14.6735L4.74798 14.255H4.14948C3.79398 14.255 3.55998 14.237 3.56898 14.2145C3.57798 14.1875 5.23398 12.5045 7.24998 10.466C9.26598 8.42752 11.201 6.47451 11.5475 6.12351C12.7895 4.86351 15.629 2.015 15.647 2.015C15.656 2.015 15.719 2.1005 15.782 2.2085C15.953 2.474 16.4705 2.96 17.042 3.3875C18.1805 4.24251 18.8195 4.85001 19.2155 5.45751C19.463 5.83551 19.67 6.24501 19.67 6.35751C19.67 6.39801 19.688 6.46101 19.715 6.50601C19.7735 6.61401 19.895 7.14951 19.8905 7.28451C19.8905 7.34301 19.859 7.25751 19.8275 7.09101C19.769 6.79401 19.4405 5.91651 19.31 5.70501C19.013 5.21901 18.194 4.32351 17.8565 4.1075C17.6945 4.0085 17.582 3.914 17.312 3.671C17.2085 3.5765 17.105 3.5 17.078 3.5C17.0465 3.5 16.925 3.4145 16.808 3.3065C16.6865 3.203 16.466 3.014 16.322 2.8925C16.1735 2.771 15.9665 2.5505 15.854 2.3975C15.746 2.249 15.6335 2.132 15.611 2.141C15.584 2.1455 15.287 2.438 14.9495 2.789C14.612 3.1355 13.3565 4.40901 12.155 5.61951C8.76648 9.02602 8.11398 9.70552 8.16798 9.72802C8.19498 9.74152 8.18598 9.74602 8.14998 9.74152C8.11398 9.73702 7.61448 10.2005 7.04748 10.7765C6.16548 11.663 5.82798 12.0005 5.42298 12.41C4.87848 12.9545 4.32498 13.544 4.32498 13.58C4.32498 13.607 4.29798 13.625 4.26198 13.625C4.22598 13.625 4.09548 13.742 3.96948 13.8815C3.75348 14.1245 3.69498 14.219 3.77598 14.2055C3.79398 14.201 4.03248 14.201 4.31148 14.2055L4.81548 14.21L5.21148 14.606C5.43198 14.822 5.88648 15.2585 6.22848 15.5825C6.56598 15.902 6.84498 16.19 6.84498 16.2215C6.84498 16.2665 6.44898 16.28 4.90098 16.28C3.83448 16.28 2.97498 16.2665 2.99298 16.2485Z" fill="white"/>
<path d="M16.9115 16.208C16.898 16.19 16.898 16.118 16.9115 16.037C16.9475 15.839 17.1095 15.29 17.132 15.29C17.168 15.29 17.096 15.623 17.0555 15.6725C17.033 15.695 17.015 15.785 17.015 15.875C17.015 15.965 16.9925 16.0595 16.961 16.091C16.9205 16.1315 17.1365 16.145 17.942 16.145H18.9815L19.031 15.8885L19.0805 15.6275L19.0535 15.8975C19.04 16.046 19.022 16.181 19.0085 16.2035C18.986 16.2395 16.952 16.2485 16.9115 16.208Z" fill="white"/>
<path d="M19.0895 15.47C19.0805 15.074 19.661 13.4585 20.2055 12.3695C20.669 11.447 20.9885 10.529 21.038 9.96199C21.0605 9.71899 21.11 9.62449 21.11 9.82699C21.11 9.97549 20.9435 10.6955 20.795 11.195C20.696 11.5235 20.4665 12.041 20.237 12.455C20.0975 12.7115 19.553 13.967 19.5125 14.1335C19.4945 14.201 19.463 14.2685 19.4405 14.282C19.418 14.2955 19.4 14.3495 19.4 14.4035C19.3955 14.4575 19.328 14.7545 19.2425 15.065C19.139 15.452 19.0895 15.578 19.0895 15.47Z" fill="white"/>
<path d="M17.1545 15.227C17.1455 15.137 17.483 14.3675 17.681 14.03C17.798 13.8275 17.9644 13.5395 18.0499 13.382C18.3379 12.8645 18.7024 12.275 18.7384 12.275C18.7789 12.275 18.6934 12.428 18.1939 13.265C17.9059 13.7375 17.573 14.3855 17.231 15.11C17.1905 15.1955 17.1545 15.2495 17.1545 15.227Z" fill="white"/>
<path d="M19.0626 11.5685C19.2471 11.1995 19.4001 10.8755 19.4001 10.8485C19.4001 10.817 19.4631 10.592 19.5396 10.3535C19.6206 10.1105 19.7286 9.69196 19.7871 9.41746C19.8681 9.03946 19.8861 8.98546 19.8681 9.19246C19.8546 9.34096 19.8231 9.54346 19.7961 9.64246C19.7691 9.74146 19.7421 9.86296 19.7331 9.91246C19.7286 9.96196 19.7196 10.0115 19.7106 10.025C19.7061 10.0385 19.6971 10.07 19.6926 10.0925C19.6386 10.421 19.4541 10.907 19.0851 11.681C18.9366 11.9825 18.7971 12.23 18.7746 12.23C18.7476 12.23 18.8781 11.933 19.0626 11.5685Z" fill="white"/>
<path d="M21.1055 9.59304C21.0875 9.36803 21.1235 8.91802 21.164 8.87752C21.191 8.85052 21.1955 8.97652 21.173 9.23753C21.146 9.63354 21.119 9.76855 21.1055 9.59304Z" fill="white"/>
<path d="M19.9131 8.11244C19.9131 7.47345 19.9176 7.43295 19.9536 7.75694C19.9716 7.95494 19.9716 8.27893 19.9491 8.47693C19.9176 8.79192 19.9131 8.74692 19.9131 8.11244Z" fill="white"/>
<path d="M21.1009 8.59848C21.0874 8.47699 21.0964 8.34199 21.1144 8.29249C21.1369 8.23399 21.1504 8.31499 21.1504 8.50849C21.1549 8.85948 21.1279 8.90448 21.1009 8.59848Z" fill="white"/>
<path d="M21.0246 7.79748C20.9931 7.60847 20.9796 7.44197 20.9886 7.42847C21.0201 7.40147 21.1281 8.01798 21.1011 8.08998C21.0921 8.12148 21.0561 7.99098 21.0246 7.79748Z" fill="white"/>
<path d="M20.7815 6.83904C20.453 5.81754 19.9085 4.91303 19.2245 4.24703C19.0355 4.05803 18.5315 3.64852 18.113 3.33352C17.222 2.66302 16.583 2.05101 16.412 1.71351C16.241 1.36701 16.34 1.42101 16.5605 1.79451C16.664 1.97001 16.826 2.17701 16.916 2.25351C17.006 2.33451 17.1635 2.47402 17.2625 2.57302C17.3615 2.66752 17.5235 2.79802 17.618 2.86102C17.717 2.91952 17.8475 3.02302 17.9105 3.08152C17.9735 3.14002 18.194 3.31102 18.401 3.45952C19.3775 4.16153 20.021 4.93103 20.57 6.06954C20.669 6.27654 20.75 6.47004 20.75 6.50154C20.75 6.53304 20.804 6.71304 20.867 6.90204C20.93 7.09105 20.975 7.27105 20.966 7.30255C20.957 7.33855 20.876 7.12705 20.7815 6.83904Z" fill="white"/>
<path d="M16.2814 1.39849C16.1824 1.30399 16.2769 0.588487 16.4344 0.183485C16.4794 0.070984 16.4794 0.0304838 16.4344 -0.0280166C16.3984 -0.0685168 16.3489 -0.100017 16.3174 -0.100017C16.2094 -0.100017 15.8359 0.273485 15.6964 0.520987C15.6199 0.660487 15.5479 0.745988 15.5389 0.718988C15.5119 0.637987 15.7369 0.295985 15.9754 0.066484C16.1599 -0.118017 16.2184 -0.149517 16.3399 -0.136017C16.5784 -0.113517 16.6009 -0.0190165 16.4479 0.358986C16.3399 0.633487 16.3174 0.750488 16.3174 1.06099C16.3219 1.26349 16.3174 1.42999 16.3174 1.42999C16.3129 1.42999 16.2949 1.41649 16.2814 1.39849Z" fill="white"/>
<path d="M15.4401 1.06098C15.4401 0.916985 15.4806 0.799988 15.5346 0.799988C15.5796 0.799988 15.5346 1.07448 15.4806 1.13748C15.4581 1.15998 15.4401 1.12848 15.4401 1.06098Z" fill="white"/>
<path d="M15.9755 33.9335C15.8496 33.812 15.7281 33.677 15.7011 33.6275C15.6741 33.578 15.7821 33.6635 15.9441 33.821C16.2365 34.109 16.3715 34.1585 16.4795 34.028C16.5245 33.974 16.5245 33.929 16.4885 33.839C16.3895 33.587 16.3805 33.542 16.4705 33.695C16.628 33.9695 16.574 34.145 16.331 34.145C16.2455 34.145 16.1375 34.082 15.9755 33.9335Z" fill="white"/>
<path d="M15.575 33.4204C15.548 33.371 15.53 33.308 15.539 33.2855C15.548 33.263 15.575 33.3035 15.6065 33.38C15.665 33.5329 15.647 33.5599 15.575 33.4204Z" fill="white"/>
<path d="M15.4716 33.1415C15.4536 33.0965 15.4401 33.0245 15.4401 32.984C15.4446 32.9164 15.4491 32.9164 15.4895 32.9885C15.5165 33.0335 15.53 33.101 15.521 33.146C15.5075 33.218 15.503 33.2135 15.4716 33.1415Z" fill="white"/>
<path d="M16.2635 32.9749C16.2635 32.8399 16.2725 32.7814 16.2815 32.8534C16.2905 32.9209 16.2905 33.0289 16.2815 33.1009C16.2725 33.1684 16.2635 33.1099 16.2635 32.9749Z" fill="white"/>
<path d="M14.036 31.3596C13.271 30.599 12.65 29.9465 12.65 29.9105C12.65 29.8565 12.659 29.8565 12.6905 29.9105C12.713 29.942 13.352 30.5945 14.117 31.3596C14.882 32.1246 15.485 32.7501 15.4625 32.7501C15.4355 32.7456 14.7965 32.1246 14.036 31.3596Z" fill="white"/>
<path d="M16.358 32.4486C16.511 32.039 17.024 31.508 17.8925 30.8555C18.5135 30.3875 18.635 30.3065 18.635 30.3515C18.635 30.374 18.5585 30.437 18.4685 30.491C18.374 30.5405 18.176 30.689 18.0275 30.815C17.879 30.9455 17.6855 31.094 17.5955 31.1525C17.51 31.211 17.357 31.3325 17.258 31.427C17.159 31.526 17.006 31.6655 16.916 31.7465C16.826 31.823 16.664 32.03 16.5605 32.2055C16.376 32.5161 16.2995 32.6061 16.358 32.4486Z" fill="white"/>
<path d="M14.9269 31.256C14.5399 30.86 14.2294 30.5225 14.2429 30.509C14.2564 30.5 14.3554 30.5855 14.4589 30.7025C14.5669 30.8195 14.7514 31.0085 14.8729 31.121C14.9899 31.238 15.1429 31.391 15.2104 31.4675C15.2734 31.5395 15.3949 31.67 15.4714 31.751L15.6199 31.904L15.8539 31.5935C15.9844 31.418 16.2139 31.184 16.3624 31.0625C16.5109 30.941 16.7224 30.7655 16.8304 30.671C16.9384 30.5765 17.0509 30.5 17.0779 30.5C17.1049 30.5 17.2084 30.4235 17.3074 30.329C17.4109 30.239 17.5864 30.0905 17.7079 30.005C18.1624 29.6675 18.6934 29.141 19.022 28.691C19.328 28.277 19.391 28.1645 19.5395 27.791C19.5935 27.647 19.6475 27.539 19.661 27.548C19.688 27.5795 19.4495 28.1555 19.3235 28.358C19.0805 28.7495 18.7114 29.1905 18.3559 29.519C17.9554 29.8835 17.2669 30.4325 16.9024 30.68C16.5964 30.8915 15.9034 31.5575 15.7549 31.7915L15.6334 31.9805L14.9269 31.256Z" fill="white"/>
<path d="M14.0676 30.4099C14.0226 30.3604 14.0091 30.3199 14.0361 30.3199C14.0631 30.3199 14.1081 30.3604 14.1351 30.4099C14.162 30.4594 14.1755 30.4999 14.1665 30.4999C14.1575 30.4999 14.1126 30.4594 14.0676 30.4099Z" fill="white"/>
<path d="M19.13 29.8791C19.6115 29.4156 19.769 29.2851 19.4855 29.5866C19.2515 29.8431 19.0355 30.0411 18.8375 30.1986C18.7385 30.2751 18.869 30.1311 19.13 29.8791Z" fill="white"/>
<path d="M13.64 29.9554C13.478 29.7889 12.6545 28.9519 11.8085 28.1014C10.958 27.2464 10.265 26.5354 10.265 26.5174C10.265 26.4994 11.1065 27.3274 12.1325 28.3579C13.1585 29.3839 14 30.2344 14 30.2479C14 30.3109 13.9145 30.2389 13.64 29.9554Z" fill="white"/>
<path d="M12.308 29.609C12.1595 29.465 12.002 29.294 11.948 29.2355C11.8985 29.177 11.786 29.0645 11.7005 28.9835C11.4215 28.727 9.2975 26.567 9.2075 26.4499C9.1625 26.3869 9.90951 27.125 10.868 28.0835C11.8265 29.0465 12.605 29.843 12.5915 29.852C12.578 29.8655 12.452 29.7575 12.308 29.609Z" fill="white"/>
<path d="M19.895 28.9925C20.048 28.772 20.255 28.439 20.354 28.2635C20.5475 27.908 20.633 27.8135 20.4755 28.1285C20.255 28.5605 19.895 29.1365 19.76 29.2625C19.6565 29.3615 19.6925 29.2895 19.895 28.9925Z" fill="white"/>
<path d="M20.5971 27.8224C20.6106 27.7729 20.6331 27.6829 20.6421 27.6244C20.6556 27.5614 20.6826 27.4804 20.7051 27.4444C20.7906 27.2959 20.7501 27.5479 20.6601 27.7324C20.6106 27.8314 20.5791 27.8719 20.5971 27.8224Z" fill="white"/>
<path d="M19.67 27.44C19.67 27.404 19.6925 27.341 19.715 27.305C19.7555 27.2465 19.76 27.2465 19.76 27.305C19.76 27.341 19.7375 27.404 19.715 27.44C19.6745 27.4985 19.67 27.4985 19.67 27.44Z" fill="white"/>
<path d="M20.8895 26.9C20.8895 26.864 20.9075 26.792 20.93 26.7425C20.9524 26.684 20.9704 26.6795 20.9704 26.72C20.9704 26.756 20.9524 26.828 20.93 26.8775C20.9075 26.936 20.8895 26.9405 20.8895 26.9Z" fill="white"/>
<path d="M19.9085 26.36C19.9085 26.2475 19.9175 26.2025 19.9265 26.261C19.9355 26.315 19.9355 26.405 19.9265 26.4635C19.9175 26.5175 19.9085 26.4725 19.9085 26.36Z" fill="white"/>
<path d="M10.1075 26.4049C10.0625 26.3554 10.04 26.3149 10.058 26.3149C10.1075 26.3149 10.2335 26.4499 10.211 26.4769C10.1975 26.4859 10.1525 26.4544 10.1075 26.4049Z" fill="white"/>
<path d="M8.83398 26.1171C8.51899 25.7841 8.53699 25.7346 8.85648 26.0586C8.99597 26.1981 9.09947 26.3241 9.08597 26.3376C9.07247 26.3511 8.95997 26.2521 8.83398 26.1171Z" fill="white"/>
<path d="M7.91598 24.1865C6.78648 23.0435 5.86848 22.0985 5.88198 22.0895C5.90898 22.0625 9.99497 26.1756 9.99497 26.2251C9.99497 26.2521 9.99047 26.2701 9.98597 26.2656C9.97697 26.2656 9.04547 25.3251 7.91598 24.1865Z" fill="white"/>
<path d="M21.0741 26.045C21.0741 25.9595 21.0831 25.9235 21.0965 25.9685C21.1055 26.009 21.1055 26.081 21.0965 26.1261C21.0831 26.1666 21.0741 26.1306 21.0741 26.045Z" fill="white"/>
<path d="M8.24897 25.5185C8.11847 25.3745 7.30848 24.551 6.44898 23.6825C5.58949 22.8185 4.92799 22.139 4.97749 22.175C5.07199 22.2425 7.77647 24.9425 8.28047 25.4735C8.43797 25.64 8.55047 25.775 8.52797 25.775C8.50547 25.775 8.37947 25.658 8.24897 25.5185Z" fill="white"/>
<path d="M19.9085 25.505C19.9085 25.343 19.9175 25.28 19.9265 25.361C19.9355 25.4375 19.9355 25.5725 19.9265 25.6535C19.9175 25.73 19.9085 25.667 19.9085 25.505Z" fill="white"/>
<path d="M21.1235 25.6176C21.1235 25.5186 21.1325 25.4826 21.1415 25.5411C21.1505 25.5951 21.1505 25.6761 21.1415 25.7211C21.128 25.7616 21.119 25.7166 21.1235 25.6176Z" fill="white"/>
<path d="M21.1236 24.5151C21.1236 24.4026 21.1326 24.3576 21.1416 24.4161C21.1506 24.4701 21.1506 24.5601 21.1416 24.6186C21.1326 24.6726 21.1236 24.6276 21.1236 24.5151Z" fill="white"/>
<path d="M19.7239 24.308C19.6969 24.164 19.6789 24.0425 19.6879 24.0335C19.7149 24.0065 19.8139 24.461 19.7959 24.5195C19.7869 24.5465 19.7554 24.452 19.7239 24.308Z" fill="white"/>
<path d="M19.607 23.858C19.589 23.795 19.5845 23.732 19.5935 23.7185C19.607 23.7095 19.6295 23.7545 19.643 23.822C19.661 23.885 19.6655 23.9481 19.6565 23.9616C19.643 23.9706 19.6205 23.9256 19.607 23.858Z" fill="white"/>
<path d="M19.4765 23.462C19.4585 23.417 19.454 23.3675 19.4675 23.354C19.508 23.3135 19.544 23.381 19.526 23.4665C19.5125 23.543 19.508 23.543 19.4765 23.462Z" fill="white"/>
<path d="M20.7725 22.922C20.5655 22.292 20.543 22.211 20.6105 22.31C20.669 22.3955 20.9839 23.3855 20.9659 23.4305C20.9569 23.4485 20.8714 23.219 20.7725 22.922Z" fill="white"/>
<path d="M19.3416 23.0075C19.2336 22.7825 19.2516 22.7465 19.3596 22.9535C19.4091 23.0525 19.4451 23.138 19.4361 23.147C19.4226 23.156 19.3821 23.093 19.3416 23.0075Z" fill="white"/>
<path d="M18.9275 22.1615C18.7566 21.833 18.5046 21.3831 18.3606 21.1581C18.2211 20.9331 18.0681 20.6721 18.0276 20.5731C17.9331 20.3391 18.0051 20.4246 18.1851 20.7531C18.2616 20.8971 18.4146 21.1491 18.5226 21.3156C18.7251 21.6261 19.283 22.715 19.256 22.742C19.247 22.751 19.0985 22.49 18.9275 22.1615Z" fill="white"/>
<path d="M20.2414 21.6395C20.0749 21.3245 19.9399 21.0365 19.9399 21.005C19.9399 20.969 20.0839 21.2255 20.2549 21.5675C20.4304 21.9095 20.5654 22.193 20.5564 22.202C20.5474 22.211 20.4079 21.959 20.2414 21.6395Z" fill="white"/>
<path d="M5.6165 21.8466C5.4995 21.7386 5.405 21.6306 5.405 21.6126C5.405 21.5721 5.5625 21.7026 5.7515 21.9006C5.846 21.9995 5.873 22.04 5.8415 22.04C5.837 22.04 5.7335 21.95 5.6165 21.8466Z" fill="white"/>
<path d="M4.45999 21.6845C4.3475 21.5855 4.271 21.4955 4.2845 21.482C4.298 21.4685 4.39699 21.5495 4.50499 21.6575C4.74797 21.9051 4.72997 21.9141 4.45999 21.6845Z" fill="white"/>
<path d="M3.95147 21.1716C3.80747 21.0185 3.43398 20.636 3.11898 20.321C2.80848 20.0015 2.56099 19.745 2.57899 19.745C2.59699 19.745 2.88048 20.015 3.20898 20.348C4.17197 21.3201 4.25297 21.4056 4.23047 21.4281C4.22147 21.4416 4.09547 21.3246 3.95147 21.1716Z" fill="white"/>
<path d="M4.41502 20.6405C3.98301 20.195 3.62301 19.8125 3.61401 19.79C3.60501 19.763 3.63201 19.745 3.67251 19.745C3.71301 19.745 3.73551 19.763 3.71751 19.79C3.69051 19.835 4.64002 20.807 4.69852 20.789C4.72102 20.7845 4.72552 20.798 4.71202 20.8205C4.69402 20.843 4.77502 20.9375 4.88752 21.0321C5.09002 21.1986 5.31052 21.4596 5.23852 21.4506C5.22052 21.4461 4.84702 21.0816 4.41502 20.6405Z" fill="white"/>
<path d="M19.7646 20.618C19.7106 20.501 19.6746 20.402 19.6836 20.3885C19.6971 20.3795 19.7466 20.465 19.8006 20.582C19.8546 20.6945 19.8906 20.798 19.8816 20.807C19.8726 20.816 19.8231 20.7305 19.7646 20.618Z" fill="white"/>
<path d="M17.8115 20.2085C17.672 19.988 17.546 19.745 17.573 19.745C17.582 19.745 17.6405 19.8305 17.699 19.9385C17.7575 20.042 17.843 20.1815 17.888 20.2535C17.933 20.321 17.96 20.375 17.942 20.375C17.9285 20.375 17.87 20.2985 17.8115 20.2085Z" fill="white"/>
<path d="M19.499 19.961C19.3145 19.4525 19.2875 19.367 19.3505 19.403C19.3775 19.421 19.4 19.4705 19.4 19.511C19.4 19.556 19.463 19.7495 19.535 19.943C19.6115 20.1365 19.6655 20.3075 19.6565 20.3165C19.6475 20.3255 19.5755 20.1635 19.499 19.961Z" fill="white"/>
<path d="M0.36499 19.7585C0.36499 19.709 0.828489 19.2005 0.850989 19.223C0.864489 19.2365 0.774489 19.3535 0.65299 19.484L0.43249 19.7225L1.48999 19.745L2.54749 19.772L1.45849 19.7765C0.855489 19.781 0.36499 19.772 0.36499 19.7585Z" fill="white"/>
<path d="M4.06845 19.7585C4.18546 19.7495 4.36997 19.7495 4.47347 19.7585C4.57698 19.7675 4.48247 19.772 4.25746 19.772C4.03695 19.772 3.95145 19.7675 4.06845 19.7585Z" fill="white"/>
<path d="M4.82453 19.6774C4.91003 19.6145 5.16203 19.3805 5.38702 19.16C5.61202 18.935 5.81001 18.755 5.82801 18.755C5.84601 18.755 5.65702 18.9575 5.40502 19.205C5.15753 19.4525 4.93703 19.6549 4.91453 19.6549C4.89203 19.6549 4.86503 19.6864 4.84703 19.7224C4.83353 19.7584 4.78853 19.7899 4.74354 19.7899C4.69404 19.7899 4.71654 19.7539 4.82453 19.6774Z" fill="white"/>
<path d="M17.4739 19.6235C17.4514 19.5785 17.4199 19.484 17.4064 19.4075C17.3839 19.2995 17.3974 19.3085 17.4694 19.466C17.5595 19.655 17.564 19.7945 17.4739 19.6235Z" fill="white"/>
<path d="M19.2786 19.2185C19.2741 19.1105 19.2741 19.106 19.31 19.1825C19.3595 19.2995 19.364 19.34 19.319 19.34C19.301 19.34 19.2831 19.286 19.2786 19.2185Z" fill="white"/>
<path d="M17.2265 19.0025C17.186 18.9125 17.15 18.818 17.1545 18.7865C17.1545 18.755 17.195 18.8225 17.2445 18.9305C17.348 19.169 17.3345 19.2275 17.2265 19.0025Z" fill="white"/>
<path d="M21.4701 19.079C21.4701 19.034 22.0056 18.377 22.0596 18.359C22.0821 18.35 22.1001 18.323 22.1001 18.296C22.1001 18.242 22.3431 17.9315 22.6086 17.6525L22.7751 17.4725L12.0336 17.45L1.28754 17.4275L12.0786 17.414L22.8696 17.405L22.7751 17.531C22.7211 17.5985 22.5861 17.7515 22.4781 17.8685C22.3701 17.9855 22.2801 18.0935 22.2801 18.107C22.2801 18.143 22.1316 18.332 21.9471 18.53C21.7716 18.7235 21.5601 19.0025 21.5601 19.0385C21.5601 19.052 21.6456 19.0385 21.7491 18.998C21.8481 18.962 21.9426 18.944 21.9561 18.9575C21.9696 18.9665 21.9516 18.9845 21.9156 18.998C21.8796 19.007 21.7851 19.0385 21.6996 19.0655C21.5196 19.124 21.4701 19.1285 21.4701 19.079Z" fill="white"/>
<path d="M19.175 18.845C19.1435 18.719 19.13 18.6065 19.139 18.5975C19.1525 18.584 19.184 18.6785 19.211 18.809C19.2424 18.935 19.2604 19.0475 19.2469 19.0565C19.2379 19.0655 19.2065 18.971 19.175 18.845Z" fill="white"/>
<path d="M1.31003 18.7821C1.31003 18.7641 1.52153 18.5346 1.78252 18.2736C2.03902 18.0125 2.24602 17.783 2.23252 17.765C2.20102 17.7155 2.44852 17.675 2.50252 17.7245C2.52502 17.747 2.50702 17.765 2.45302 17.765C2.39902 17.765 2.24602 17.882 2.08852 18.0485C1.62953 18.5211 1.31003 18.8226 1.31003 18.7821Z" fill="white"/>
<path d="M22.55 18.764C22.586 18.7415 22.667 18.7056 22.73 18.6921C22.8065 18.6696 22.82 18.6741 22.775 18.7011C22.739 18.7235 22.658 18.7595 22.595 18.773C22.5185 18.7955 22.505 18.791 22.55 18.764Z" fill="white"/>
<path d="M5.90445 18.6785C5.91345 18.6245 6.52545 18.062 6.55245 18.089C6.56595 18.098 6.42195 18.2465 6.23745 18.413C6.05295 18.5795 5.90445 18.701 5.90445 18.6785Z" fill="white"/>
<path d="M23.0451 18.584C23.0811 18.5615 23.162 18.5255 23.225 18.512C23.3015 18.4895 23.315 18.494 23.27 18.521C23.234 18.5435 23.153 18.5795 23.0901 18.593C23.0136 18.6155 23.0001 18.611 23.0451 18.584Z" fill="white"/>
<path d="M23.4049 18.449C23.4409 18.4265 23.5219 18.3905 23.5849 18.377C23.6614 18.3545 23.6749 18.359 23.6299 18.386C23.5939 18.4085 23.5129 18.4445 23.4499 18.458C23.3734 18.4805 23.3599 18.476 23.4049 18.449Z" fill="white"/>
<path d="M19.022 18.0935C18.9995 17.954 18.959 17.8505 18.9185 17.837C18.8825 17.819 18.419 17.8145 17.8881 17.819C17.3571 17.828 16.9251 17.819 16.9251 17.7965C16.9251 17.7785 17.3976 17.7695 17.9691 17.774L19.013 17.7875L19.049 17.99C19.0715 18.1025 19.0805 18.224 19.0715 18.26C19.0625 18.296 19.04 18.224 19.022 18.0935Z" fill="white"/>
<path d="M24.0891 18.2375C24.1251 18.2015 24.7686 17.9899 24.7866 18.008C24.7956 18.017 24.6516 18.0755 24.4671 18.143C24.1386 18.2601 24.0441 18.2826 24.0891 18.2375Z" fill="white"/>
<path d="M6.62 17.9945C6.62 17.9675 6.65149 17.9315 6.68749 17.918C6.76849 17.8865 6.77749 17.7831 6.70099 17.7516C6.66949 17.7381 6.68749 17.7336 6.74599 17.7336C6.87649 17.7426 6.87199 17.8146 6.73249 17.945C6.66949 18.0035 6.62 18.026 6.62 17.9945Z" fill="white"/>
<path d="M24.8899 17.954C24.9259 17.9315 25.0069 17.8955 25.0699 17.882C25.1464 17.8595 25.1599 17.864 25.1149 17.891C25.0789 17.9135 24.9979 17.9495 24.9349 17.9629C24.8584 17.9854 24.8449 17.9809 24.8899 17.954Z" fill="white"/>
<path d="M25.3176 17.792C25.3941 17.7605 25.502 17.72 25.565 17.702C25.655 17.6794 25.6505 17.6884 25.5425 17.738C25.4705 17.7695 25.3581 17.81 25.2951 17.8281C25.2051 17.8506 25.2096 17.8416 25.3176 17.792Z" fill="white"/>
<path d="M6.07102 17.7335C6.17452 17.7245 6.34551 17.7245 6.4535 17.7335C6.557 17.7425 6.4715 17.7515 6.26001 17.7515C6.04852 17.7515 5.96303 17.7425 6.07102 17.7335Z" fill="white"/>
<path d="M25.835 17.63C25.835 17.612 25.8755 17.585 25.925 17.5715C25.9746 17.558 26.0151 17.5625 26.0151 17.585C26.0151 17.603 25.9746 17.63 25.925 17.6435C25.8755 17.657 25.835 17.6525 25.835 17.63Z" fill="white"/>
<path d="M26.06 17.5355C26.06 17.504 26.0735 17.4905 26.087 17.5085C26.1005 17.522 26.3075 17.468 26.546 17.3825C26.7845 17.297 26.9825 17.234 26.9915 17.243C27.0005 17.252 26.843 17.3195 26.636 17.396C26.0825 17.594 26.06 17.5985 26.06 17.5355Z" fill="white"/>
<path d="M27.0501 17.2115C27.0501 17.198 27.1626 17.1485 27.2976 17.108C27.4326 17.063 27.5451 17.0135 27.5451 16.991C27.5451 16.973 27.5676 16.955 27.5901 16.955C27.7161 16.955 27.6081 17.045 27.4011 17.117C27.2706 17.1575 27.1356 17.2025 27.1086 17.216C27.0771 17.225 27.0501 17.225 27.0501 17.2115Z" fill="white"/>
<path d="M27.1265 16.8335C26.96 16.7705 26.8295 16.7075 26.8385 16.703C26.861 16.6805 27.3335 16.8425 27.4415 16.9055C27.5765 16.982 27.446 16.955 27.1265 16.8335Z" fill="white"/>
<path d="M26.519 16.6085C26.411 16.5725 26.3345 16.532 26.3435 16.523C26.3615 16.5005 26.78 16.64 26.78 16.667C26.78 16.6941 26.7305 16.6851 26.519 16.6085Z" fill="white"/>
<path d="M12.0291 16.55L22.7706 16.5275L22.5501 16.28C22.4286 16.145 22.3251 16.0145 22.3251 15.992C22.3251 15.956 22.6041 16.253 22.7886 16.4915L22.8696 16.595L12.0786 16.586L1.28754 16.5725L12.0291 16.55Z" fill="white"/>
<path d="M26.087 16.4735C26.0735 16.4555 26.015 16.4375 25.961 16.4285C25.853 16.4105 25.808 16.3835 25.844 16.3475C25.8755 16.3115 26.15 16.4195 26.15 16.4645C26.15 16.514 26.132 16.514 26.087 16.4735Z" fill="white"/>
<path d="M25.349 16.226C25.1465 16.1495 24.9845 16.0775 24.9935 16.0685C25.0115 16.0505 25.7495 16.3115 25.7855 16.352C25.826 16.3925 25.709 16.3565 25.349 16.226Z" fill="white"/>
<path d="M1.46753 15.4115C0.288517 14.21 0.338018 14.264 0.410018 14.1965C0.455019 14.156 0.459519 14.156 0.437019 14.1965C0.419018 14.2325 0.680021 14.5295 1.13452 14.984C2.18303 16.0416 2.40804 16.2801 2.36304 16.2801C2.34054 16.2801 1.94003 15.8886 1.46753 15.4115Z" fill="white"/>
<path d="M5.54449 16.262C5.55349 16.253 5.80998 16.235 6.11147 16.2305C6.41297 16.2215 6.69196 16.2035 6.73696 16.1855C6.81346 16.163 6.81346 16.154 6.71896 16.1045C6.66496 16.0775 6.61996 16.028 6.61996 16.001C6.61996 15.974 6.66946 15.9965 6.73246 16.055C6.94846 16.262 6.90346 16.28 6.18347 16.28C5.82348 16.28 5.53549 16.271 5.54449 16.262Z" fill="white"/>
<path d="M16.9025 16.1855C16.8845 16.1585 16.8845 16.127 16.898 16.1135C16.9115 16.0955 16.925 16.109 16.925 16.136C16.925 16.1765 17.1995 16.19 17.951 16.19H18.9815L19.031 15.9335L19.076 15.6725L19.0535 15.92C19.04 16.055 19.022 16.181 19.0085 16.2035C18.977 16.2575 16.934 16.244 16.9025 16.1855Z" fill="white"/>
<path d="M16.9295 15.9605C16.9295 15.902 16.9475 15.812 16.97 15.7625C17.0015 15.6995 17.006 15.7265 16.9835 15.8525C16.952 16.0596 16.925 16.1181 16.9295 15.9605Z" fill="white"/>
<path d="M24.5976 15.9425C24.4851 15.8885 24.4806 15.8795 24.5751 15.902C24.7011 15.9335 24.8451 16.0055 24.7776 16.0055C24.7551 16.0055 24.6741 15.9785 24.5976 15.9425Z" fill="white"/>
<path d="M6.17895 15.596C5.87296 15.308 5.64346 15.065 5.68396 15.065C5.71546 15.0695 6.58845 15.92 6.55695 15.92C6.53895 15.92 6.36795 15.7715 6.17895 15.596Z" fill="white"/>
<path d="M22.1675 15.812C22.1225 15.749 22.0235 15.6185 21.938 15.5285C21.8525 15.4385 21.794 15.353 21.8075 15.344C21.8165 15.335 21.8885 15.398 21.9695 15.488C22.208 15.7625 22.2935 15.8795 22.2665 15.902C22.253 15.9155 22.208 15.875 22.1675 15.812Z" fill="white"/>
<path d="M24.125 15.785C24.0666 15.7445 24.0666 15.74 24.125 15.74C24.161 15.74 24.224 15.7625 24.26 15.785C24.3185 15.8255 24.3185 15.83 24.26 15.83C24.224 15.83 24.161 15.8075 24.125 15.785Z" fill="white"/>
<path d="M23.4366 15.5735C23.1936 15.4835 23.0046 15.407 23.0136 15.398C23.0271 15.3845 23.8326 15.6455 23.8956 15.686C23.9046 15.6905 23.9046 15.704 23.8956 15.713C23.8866 15.722 23.6796 15.659 23.4366 15.5735Z" fill="white"/>
<path d="M19.0894 15.569C19.0849 15.4835 19.2334 14.903 19.2514 14.9525C19.2559 14.9795 19.2244 15.1415 19.1794 15.3125C19.1299 15.488 19.0894 15.6005 19.0894 15.569Z" fill="white"/>
<path d="M22.541 15.245C22.352 15.1775 22.1855 15.128 22.172 15.146C22.1585 15.1595 22.145 15.146 22.145 15.119C22.145 15.0875 22.154 15.065 22.163 15.065C22.208 15.065 22.9551 15.344 22.9551 15.362C22.9551 15.3935 22.8921 15.3755 22.541 15.245Z" fill="white"/>
<path d="M21.6094 15.1235C21.4519 14.9345 21.4384 14.885 21.5419 14.885C21.5779 14.885 21.5959 14.9075 21.5824 14.93C21.5644 14.957 21.6049 15.047 21.6724 15.1325C21.83 15.344 21.7804 15.335 21.6094 15.1235Z" fill="white"/>
<path d="M17.1499 15.227C17.1499 15.1595 17.4739 14.372 17.5189 14.3225C17.5504 14.291 17.5549 14.309 17.5369 14.372C17.4964 14.5115 17.1499 15.272 17.1499 15.227Z" fill="white"/>
<path d="M21.8389 15.0335C21.7309 14.9975 21.6499 14.957 21.6589 14.9525C21.6814 14.93 22.0099 15.0065 22.0414 15.038C22.0999 15.0965 22.0234 15.0965 21.8389 15.0335Z" fill="white"/>
<path d="M5.35545 14.813C5.22045 14.6735 5.01345 14.48 4.89645 14.3855C4.77494 14.2865 4.70294 14.21 4.73444 14.21C4.76594 14.21 4.81994 14.237 4.86045 14.273C5.02245 14.417 5.62545 15.038 5.61645 15.0515C5.60745 15.056 5.49045 14.948 5.35545 14.813Z" fill="white"/>
<path d="M19.3145 14.561C19.3145 14.5295 19.3325 14.462 19.355 14.4125C19.391 14.3315 19.3955 14.336 19.3955 14.444C19.4 14.5115 19.382 14.579 19.355 14.5925C19.3325 14.606 19.31 14.5925 19.3145 14.561Z" fill="white"/>
<path d="M19.4046 14.2686C19.4046 14.246 19.4451 14.1515 19.4946 14.0525C19.5755 13.886 19.571 13.9715 19.4856 14.201C19.4496 14.2956 19.3956 14.3406 19.4046 14.2686Z" fill="white"/>
<path d="M2.64646 14.156C2.69146 14.0975 2.90746 13.8815 3.13246 13.67C3.35295 13.4585 3.48795 13.346 3.42495 13.4225C3.30795 13.5575 2.60146 14.255 2.57896 14.255C2.56996 14.255 2.60146 14.21 2.64646 14.156Z" fill="white"/>
<path d="M17.6901 13.9985C17.7711 13.8545 17.8656 13.706 17.9061 13.67C17.9556 13.6205 17.9511 13.643 17.8926 13.7375C17.8431 13.814 17.7576 13.958 17.6991 14.066C17.6406 14.1695 17.5821 14.255 17.5686 14.255C17.5551 14.255 17.6091 14.138 17.6901 13.9985Z" fill="white"/>
<path d="M4.69847 13.0805C5.31047 12.4595 5.82346 11.96 5.83246 11.969C5.84596 11.9825 5.76946 12.068 5.67046 12.167C5.56696 12.2615 5.41846 12.41 5.34197 12.4955C5.26547 12.581 5.00447 12.8465 4.76597 13.0895C4.52297 13.3325 4.32498 13.553 4.32498 13.58C4.32498 13.6025 4.29798 13.625 4.26198 13.625C4.19898 13.625 3.73998 14.1065 3.73998 14.174C3.73998 14.192 3.70398 14.21 3.66348 14.21C3.61398 14.21 4.02798 13.76 4.69847 13.0805Z" fill="white"/>
<path d="M19.5844 13.8365C19.5799 13.787 19.9039 13.0805 19.9265 13.0985C19.9355 13.1075 19.8634 13.2875 19.7644 13.4945C19.6654 13.7015 19.5844 13.8545 19.5844 13.8365Z" fill="white"/>
<path d="M18.023 13.445C18.059 13.3595 18.221 13.076 18.383 12.815C18.545 12.554 18.68 12.329 18.68 12.311C18.68 12.2885 18.7025 12.275 18.7295 12.275C18.761 12.275 18.7475 12.3245 18.698 12.401C18.653 12.4685 18.491 12.734 18.3335 12.995C17.96 13.616 17.951 13.6295 18.023 13.445Z" fill="white"/>
<path d="M3.605 13.1975C3.70401 13.0625 4.01451 12.761 4.03701 12.779C4.04601 12.788 3.93801 12.9095 3.79851 13.0445C3.659 13.1795 3.5735 13.247 3.605 13.1975Z" fill="white"/>
<path d="M19.9399 12.9545C19.9624 12.905 20.0074 12.8105 20.0299 12.743C20.0569 12.6755 20.0884 12.635 20.1019 12.644C20.1334 12.68 19.9804 13.04 19.9354 13.04C19.9084 13.04 19.9129 13.004 19.9399 12.9545Z" fill="white"/>
<path d="M4.12244 12.635C4.16745 12.5855 4.21245 12.545 4.22145 12.545C4.23045 12.545 4.21695 12.5855 4.18995 12.635C4.16295 12.6845 4.11794 12.725 4.09094 12.725C4.06394 12.725 4.07744 12.6845 4.12244 12.635Z" fill="white"/>
<path d="M20.327 12.185C20.444 11.9645 20.5476 11.789 20.5611 11.8025C20.5836 11.825 20.174 12.59 20.138 12.59C20.1245 12.59 20.21 12.41 20.327 12.185Z" fill="white"/>
<path d="M4.415 12.356C4.5005 12.275 4.63999 12.1355 4.72549 12.05C4.90999 11.8655 4.81999 11.996 4.595 12.2435C4.5095 12.3425 4.397 12.437 4.3475 12.464C4.298 12.4865 4.3295 12.437 4.415 12.356Z" fill="white"/>
<path d="M18.9771 11.735C19.1211 11.465 19.2426 11.249 19.2516 11.258C19.2786 11.285 18.7971 12.23 18.7566 12.23C18.7386 12.23 18.8376 12.0095 18.9771 11.735Z" fill="white"/>
<path d="M5.873 11.8835C5.8955 11.861 6.88551 10.8665 8.07352 9.66503C9.26602 8.46352 10.211 7.52302 10.175 7.56802C10.0175 7.77052 9.74303 8.05852 8.95552 8.85953C8.49202 9.32303 8.13652 9.71453 8.16802 9.72803C8.19502 9.74153 8.18602 9.74603 8.15002 9.74153C8.10952 9.73703 7.59201 10.223 6.99801 10.826C6.3995 11.4245 5.8955 11.915 5.8775 11.915C5.855 11.915 5.855 11.9015 5.873 11.8835Z" fill="white"/>
<path d="M5.20252 11.5595C5.37802 11.3795 5.58052 11.1725 5.65252 11.105C5.76952 10.9925 7.35351 9.395 7.71801 9.026C7.78551 8.954 7.85301 8.9045 7.86201 8.9135C7.88451 8.936 5.11702 11.7305 4.97752 11.825C4.92802 11.861 5.03152 11.7395 5.20252 11.5595Z" fill="white"/>
<path d="M20.696 11.312C20.7635 11.1275 20.822 10.9835 20.831 10.9925C20.8625 11.0195 20.6555 11.645 20.615 11.645C20.597 11.645 20.633 11.4965 20.696 11.312Z" fill="white"/>
<path d="M19.2694 11.1725C19.2694 11.15 19.3054 11.0555 19.3549 10.97C19.4045 10.8845 19.4405 10.835 19.4405 10.8575C19.4405 10.8845 19.4045 10.9745 19.3549 11.06C19.3054 11.1455 19.2694 11.1995 19.2694 11.1725Z" fill="white"/>
<path d="M20.867 10.8125C20.9165 10.5965 20.9796 10.4705 20.948 10.655C20.93 10.7405 20.903 10.844 20.8805 10.88C20.8535 10.925 20.849 10.9025 20.867 10.8125Z" fill="white"/>
<path d="M19.472 10.556C19.544 10.3265 19.67 10.0115 19.6475 10.115C19.5665 10.4885 19.5125 10.6551 19.481 10.6551C19.4585 10.6551 19.454 10.61 19.472 10.556Z" fill="white"/>
<path d="M19.6791 9.93498C19.6791 9.89898 19.6971 9.81798 19.7151 9.75498C19.7421 9.66498 19.7511 9.66048 19.7511 9.73248C19.7511 9.78198 19.7376 9.86298 19.7151 9.91248C19.6926 9.96648 19.6791 9.97548 19.6791 9.93498Z" fill="white"/>
<path d="M21.1236 9.48502C21.1236 9.37253 21.1326 9.32753 21.1416 9.38603C21.1506 9.44002 21.1506 9.53001 21.1416 9.58851C21.1326 9.6425 21.1236 9.59751 21.1236 9.48502Z" fill="white"/>
<path d="M21.1684 9.01254C21.1684 8.91354 21.1774 8.87754 21.1864 8.93604C21.1955 8.99004 21.1955 9.07104 21.1864 9.11603C21.1729 9.15653 21.1639 9.11153 21.1684 9.01254Z" fill="white"/>
<path d="M7.92499 8.87755C7.92499 8.81454 8.13651 8.55802 8.16351 8.58502C8.17701 8.59852 8.12751 8.67953 8.0555 8.76504C7.98349 8.85054 7.92499 8.90005 7.92499 8.87755Z" fill="white"/>
<path d="M19.9085 8.54002C19.9085 8.40502 19.9175 8.34652 19.9265 8.41852C19.9355 8.48602 19.9355 8.59402 19.9265 8.66602C19.9175 8.73353 19.9085 8.67503 19.9085 8.54002Z" fill="white"/>
<path d="M8.23999 8.51751C8.23999 8.49952 8.81599 7.90102 9.5225 7.19452C10.229 6.48802 11.111 5.60153 11.48 5.22803C11.8535 4.85003 12.155 4.56203 12.155 4.58903C12.155 4.61153 11.273 5.51153 10.1975 6.59152C9.12199 7.67152 8.23999 8.54001 8.23999 8.51751Z" fill="white"/>
<path d="M21.1235 8.3825C21.1235 8.28351 21.1325 8.24751 21.1415 8.30601C21.1505 8.36 21.1505 8.441 21.1415 8.486C21.128 8.5265 21.119 8.4815 21.1235 8.3825Z" fill="white"/>
<path d="M21.0741 7.955C21.0741 7.8695 21.0831 7.8335 21.0965 7.8785C21.1055 7.919 21.1055 7.991 21.0965 8.036C21.0831 8.0765 21.0741 8.0405 21.0741 7.955Z" fill="white"/>
<path d="M19.9085 7.66255C19.9085 7.54104 19.9175 7.49154 19.9265 7.56354C19.9355 7.63105 19.9355 7.73006 19.9265 7.78856C19.9175 7.84257 19.9085 7.78856 19.9085 7.66255Z" fill="white"/>
<path d="M10.265 7.47802C10.265 7.46002 10.922 6.78502 11.723 5.97952C12.5285 5.17402 13.739 3.94553 14.4185 3.25703C15.3725 2.28503 15.656 2.01953 15.6785 2.07803C15.6965 2.12303 15.692 2.14553 15.665 2.12753C15.638 2.11403 15.332 2.39753 14.9765 2.75753C13.7075 4.06253 10.265 7.51402 10.265 7.47802Z" fill="white"/>
<path d="M20.8534 6.99652C20.7994 6.82102 20.7634 6.66802 20.7724 6.65902C20.7814 6.65002 20.8354 6.78502 20.8894 6.96052C20.9389 7.14052 20.9749 7.29352 20.9659 7.30252C20.9569 7.31602 20.9029 7.17652 20.8534 6.99652Z" fill="white"/>
<path d="M19.589 6.33953C19.508 6.12802 19.4045 5.87602 19.3505 5.78152C19.1075 5.32702 18.2255 4.34151 17.8565 4.10751C17.699 4.00851 17.582 3.91401 17.3345 3.68901C17.2445 3.608 17.1095 3.509 17.033 3.473C16.9565 3.437 16.826 3.3335 16.7405 3.2435C16.6145 3.113 16.655 3.131 16.9475 3.347C18.2165 4.27401 18.8825 4.92202 19.346 5.68252C19.4765 5.89852 19.787 6.68153 19.7555 6.71303C19.7465 6.72203 19.67 6.55553 19.589 6.33953Z" fill="white"/>
<path d="M20.6915 6.52849C20.669 6.47449 20.6466 6.39349 20.6376 6.34849C20.6286 6.30349 20.6106 6.22699 20.5971 6.17749C20.5791 6.12799 20.6106 6.17299 20.6601 6.28099C20.714 6.38899 20.75 6.51049 20.741 6.55099C20.7275 6.61399 20.7185 6.60949 20.6915 6.52849Z" fill="white"/>
<path d="M20.4395 5.89402C20.3045 5.62852 19.9265 5.01653 19.7645 4.79604L19.616 4.60254L19.8005 4.80504C20.012 5.03903 20.624 6.06502 20.5475 6.06502C20.5385 6.06502 20.489 5.98852 20.4395 5.89402Z" fill="white"/>
<path d="M19.1301 4.12105C18.8691 3.86904 18.6891 3.68454 18.7251 3.70254C18.8376 3.77004 19.1751 4.08505 19.4856 4.41805C19.7691 4.71506 19.6071 4.58006 19.1301 4.12105Z" fill="white"/>
<path d="M12.2001 4.49901C12.2001 4.47651 12.2316 4.4315 12.2676 4.39999C12.3036 4.36849 12.3351 4.36399 12.3351 4.39099C12.3351 4.4135 12.3036 4.45851 12.2676 4.49001C12.2316 4.52152 12.2001 4.52602 12.2001 4.49901Z" fill="white"/>
<path d="M12.38 4.33696C12.38 4.28746 15.4355 1.23199 15.4625 1.25449C15.4715 1.26799 14.783 1.97448 13.928 2.82497C13.0775 3.67997 12.38 4.35946 12.38 4.33696Z" fill="white"/>
<path d="M18.023 3.23903C17.1815 2.60903 16.727 2.18603 16.511 1.82153C16.412 1.65503 16.3355 1.50653 16.349 1.49753C16.3625 1.48403 16.457 1.61903 16.5605 1.79453C16.664 1.97003 16.826 2.17703 16.916 2.25353C17.006 2.33453 17.195 2.50553 17.33 2.63153C17.465 2.76203 17.5955 2.87003 17.6225 2.87003C17.6495 2.87003 17.7485 2.94203 17.8475 3.02753C17.9465 3.11753 18.158 3.28403 18.32 3.39654C18.482 3.51354 18.6215 3.61254 18.6305 3.62154C18.6395 3.63054 18.6395 3.64404 18.6305 3.65754C18.617 3.66654 18.347 3.47754 18.023 3.23903Z" fill="white"/>
<path d="M16.2725 2.85201C16.124 2.72151 15.9349 2.51451 15.8494 2.393L15.7009 2.1725L15.8719 2.375C15.9709 2.48301 16.169 2.69001 16.3175 2.83401C16.6595 3.16252 16.628 3.17152 16.2725 2.85201Z" fill="white"/>
<path d="M16.2771 1.29053C16.2636 1.21403 16.2546 1.06553 16.2546 0.962028C16.2591 0.827028 16.2726 0.858528 16.2996 1.09253C16.3356 1.42553 16.3266 1.52903 16.2771 1.29053Z" fill="white"/>
<path d="M15.4401 1.00251C15.4401 0.953017 15.4626 0.881023 15.4851 0.845026C15.5211 0.791031 15.5301 0.791031 15.5301 0.867524C15.5301 0.91702 15.5076 0.989014 15.4851 1.02501C15.4491 1.07901 15.4401 1.07901 15.4401 1.00251Z" fill="white"/>
<path d="M15.5345 0.705509C15.53 0.669509 15.5615 0.597509 15.602 0.548009C15.6695 0.462509 15.6695 0.462509 15.629 0.552509C15.6065 0.602009 15.575 0.674009 15.5615 0.710009C15.539 0.768509 15.5345 0.768509 15.5345 0.705509Z" fill="white"/>
<path d="M16.3446 0.566006C16.3401 0.512007 16.4841 0.165508 16.5021 0.183508C16.5156 0.192508 16.4841 0.291507 16.4346 0.399507C16.3851 0.507507 16.3446 0.584006 16.3446 0.566006Z" fill="white"/>
<path d="M15.7009 0.372508C15.7234 0.32301 15.7909 0.242012 15.8494 0.192513C15.9484 0.102516 15.9484 0.102516 15.8989 0.192513C15.8764 0.242012 15.8089 0.32301 15.7504 0.372508C15.6514 0.462506 15.6514 0.462506 15.7009 0.372508Z" fill="white"/>
<path d="M15.98 0.0980229C15.98 0.00351828 16.1915 -0.144989 16.322 -0.144989C16.4794 -0.144989 16.5649 -0.0729855 16.5649 0.0575209C16.5649 0.138525 16.5559 0.134025 16.5064 0.0350198C16.4254 -0.126988 16.268 -0.131488 16.1105 0.0170189C16.0385 0.0845223 15.98 0.120524 15.98 0.0980229Z" fill="white"/>
</svg>
